<?xml version="1.0" standalone="no"?>
<!DOCTYPE svg PUBLIC "-//W3C//DTD SVG 20010904//EN"
 "http://www.w3.org/TR/2001/REC-SVG-20010904/DTD/svg10.dtd">
<svg version="1.0" xmlns="http://www.w3.org/2000/svg"
 width="512.000000pt" height="512.000000pt" viewBox="0 0 512.000000 512.000000"
 preserveAspectRatio="xMidYMid meet">
<metadata>
Created by potrace 1.14, written by Peter Selinger 2001-2017
</metadata>
<g transform="translate(0.000000,512.000000) scale(0.100000,-0.100000)"
fill="#000000" stroke="none">
<path d="M620 4794 c-99 -21 -205 -79 -281 -154 -72 -71 -109 -128 -148 -229
l-26 -66 -3 -1019 c-2 -993 -2 -1022 18 -1099 59 -237 255 -408 502 -442 l48
-6 2 -424 3 -424 207 144 207 144 48 -16 c43 -15 142 -17 1007 -20 l959 -4
611 -425 611 -425 5 428 5 428 56 7 c69 9 155 38 217 74 78 45 182 159 224
244 66 137 63 84 63 1195 0 952 -1 1013 -18 1070 -75 242 -274 409 -514 432
-60 6 -63 7 -63 32 -1 54 -31 168 -63 236 -78 162 -232 284 -406 321 -98 20
-3174 19 -3271 -2z m3275 -272 c80 -39 118 -72 163 -145 l37 -62 0 -1010 0
-1010 -32 -65 c-33 -65 -84 -130 -103 -130 -5 0 -10 -4 -10 -9 0 -5 -28 -19
-62 -30 -61 -21 -74 -21 -1040 -21 -645 0 -978 -3 -978 -10 0 -5 -7 -10 -15
-10 -8 0 -15 -4 -15 -10 0 -5 -7 -10 -15 -10 -9 0 -18 -7 -21 -15 -4 -8 -12
-15 -20 -15 -8 0 -14 -4 -14 -10 0 -5 -7 -10 -15 -10 -8 0 -15 -4 -15 -10 0
-5 -7 -10 -15 -10 -9 0 -18 -7 -21 -15 -4 -8 -12 -15 -20 -15 -8 0 -14 -4 -14
-10 0 -5 -7 -10 -15 -10 -8 0 -15 -4 -15 -10 0 -5 -7 -10 -15 -10 -9 0 -18 -7
-21 -15 -4 -8 -12 -15 -20 -15 -8 0 -14 -4 -14 -10 0 -5 -7 -10 -15 -10 -8 0
-15 -4 -15 -10 0 -5 -7 -10 -15 -10 -8 0 -15 -4 -15 -10 0 -5 -7 -10 -15 -10
-9 0 -18 -7 -21 -15 -4 -8 -12 -15 -20 -15 -8 0 -14 -4 -14 -10 0 -5 -7 -10
-15 -10 -8 0 -15 -4 -15 -10 0 -5 -7 -10 -15 -10 -9 0 -18 -7 -21 -15 -4 -8
-12 -15 -20 -15 -8 0 -14 -4 -14 -10 0 -5 -7 -10 -15 -10 -8 0 -15 -4 -15 -10
0 -5 -7 -10 -15 -10 -8 0 -15 -4 -15 -10 0 -5 -7 -10 -15 -10 -9 0 -18 -7 -21
-15 -4 -8 -12 -15 -20 -15 -8 0 -14 -4 -14 -10 0 -5 -7 -10 -15 -10 -8 0 -15
-4 -15 -10 0 -5 -7 -10 -15 -10 -9 0 -18 -7 -21 -15 -4 -8 -12 -15 -20 -15 -8
0 -14 -4 -14 -10 0 -5 -7 -10 -15 -10 -8 0 -15 -3 -15 -7 0 -9 -49 -33 -67
-33 -28 0 -33 43 -33 314 l0 276 -150 0 c-127 0 -158 3 -205 21 -96 36 -184
150 -204 264 -15 84 -15 1869 -1 1948 21 110 107 214 212 254 52 21 70 21
1628 22 l1575 1 60 -28z m579 -612 c105 -40 175 -126 196 -243 7 -35 10 -393
8 -1008 l-3 -954 -26 -56 c-34 -71 -87 -125 -158 -157 -51 -24 -70 -27 -218
-30 l-163 -4 0 -294 c0 -162 -3 -294 -7 -294 -5 0 -198 133 -431 295 l-422
295 -872 0 c-752 0 -870 2 -858 14 8 8 109 80 225 160 l209 146 931 0 c1019 0
1004 0 1133 60 121 57 225 161 282 282 60 128 60 126 60 1006 l0 802 30 0 c16
0 54 -9 84 -20z"/>
<path d="M1580 3345 l0 -115 115 0 115 0 0 115 0 115 -115 0 -115 0 0 -115z"/>
<path d="M2140 3345 l0 -115 115 0 115 0 0 115 0 115 -115 0 -115 0 0 -115z"/>
<path d="M2710 3345 l0 -115 115 0 115 0 0 115 0 115 -115 0 -115 0 0 -115z"/>
</g>
</svg>
